<?xml version="1.0" encoding="UTF-8"?>
<svg id="Layer_1" xmlns="http://www.w3.org/2000/svg" version="1.1" viewBox="0 0 58.4 50">
  <!-- Generator: Adobe Illustrator 29.1.0, SVG Export Plug-In . SVG Version: 2.1.0 Build 142)  -->
  <defs>
    <style>
      .st0 {
        fill: none;
      }

      .st1 {
        fill: #4c0c5f;
      }

      .st2 {
        fill: #fff;
      }

      .st3 {
        fill: #89399d;
      }
    </style>
  </defs>
  <path class="st0" d="M57.5,8.7c-.8-1.4-2-2.2-3.9-2.5-1.9-.2-3.5.4-4.4,1-1.1.7-1.8,1.6-2.9,2.8-1.2,1.4-3.1,3.6-3.9,4.6-.4.5-2.4,3-5.6,7.2-4.1,5.4-8,10.9-8.4,11.3-.3.5-1.1,1.7-1.7,1.5-.6-.3-.2-1.6,0-2.6.2-1,1.3-5.4,1.6-6.9.2-.8.9-3.9,1.5-7.2.5-2.6,1-5.3,1.2-7.2.2-1.8-.6-2.7-1.6-2.9-1.3-.3-2.7.3-3.5.9-.6.4-1.5,1.2-2.3,1.9-.4.3-2.8,2.7-5.2,5-1.5,1.5-3,2.9-4,3.9-.5.5-.9.8-1.1.9-.5.4-.7,0-.7-.7s0-2,.1-2.4c0-.9.2-2.3.2-4.7,0-1.5.1-3.1-.2-4-.4-1.1-1.1-1.9-2.2-2.3-.8-.3-1.7-.4-2.6-.4-1.4,0-2.9.5-3.5.9-.5.3-.9.7-1.2,1-.3.4-.6.8-.8,1.3.7-.2,1.4-.2,1.9,0,.8.3,1.3.9,1.5,1.4.3.7,0,3.1,0,3.7s-.1,2.5-.3,4.9c0,1.2-.1,2.5-.2,3.5,0,1.5-.1,2.8-.1,3.1,0,1,.2,1.5.4,2.1.4.9.8,1.4,1.5,1.8.8.4,2.2.5,3.2,0,1.5-.8,2.4-1.8,3.4-2.7.8-.7,1.7-1.8,2.1-2.1.9-.9,4.7-5.1,5.9-6.3.7-.7,1.7-1.8,2.4-2.4.6-.5.9-.8,1.3-.6.4.1.2.7,0,1.2-.3.7-.5,1.3-.9,2.3-.3.9-2.2,5.2-3.9,9.5-1.5,3.8-2.8,7.1-3.1,8.1-.3.9-.6,2.7-.6,3.9,0,1.4.2,2.2.6,3,.8,1.6,1.9,2.8,4.1,3,1.1.1,2.9,0,4.3-1,1-.7,1.7-1.3,2.4-2,.9-.8,4.5-5,7.6-8.6,1.8-2.1,3.5-4.1,4.3-5.1.9-1.1,3.1-3.5,5.4-6.2,3.5-4,6.5-7.5,7.5-8.5.7-.7,1.8-1.3,2.5-1.5,1-.3,1.8-.3,2.1-.2v-3.1c0-.5-.3-1.2-.6-1.8Z"/>
  <path class="st1" d="M56,13.9c-.7.2-1.8.8-2.5,1.5-1,1-4,4.5-7.5,8.5-2.3,2.6-4.5,5.1-5.4,6.2-.8,1-2.5,2.9-4.3,5.1-3.1,3.6-6.7,7.7-7.6,8.6-.7.7-1.5,1.3-2.4,2-1.4,1-3.3,1.2-4.3,1-2.2-.3-3.3-1.4-4.1-3-.4-.9-.5-1.6-.6-3,0-1.2.3-2.9.6-3.9.3-1,1.6-4.3,3.1-8.1,1.7-4.2,3.6-8.6,3.9-9.5.4-1,.6-1.6.9-2.3.2-.5.4-1.1,0-1.2-.4-.2-.7.1-1.3.6-.7.6-1.8,1.7-2.4,2.4-1.2,1.2-5,5.4-5.9,6.3s-1.3,1.4-2.1,2.1c-1,.9-1.9,1.9-3.4,2.7-1,.5-2.5.4-3.2,0-.7-.4-1.2-.9-1.5-1.8-.2-.6-.4-1.1-.4-2.1,0-.3,0-1.6.1-3.1,0-1.1.1-2.3.2-3.5.1-2.4.3-4.7.3-4.9,0-.6.2-2.9,0-3.7-.2-.5-.7-1.1-1.5-1.4-.5-.2-1.2-.2-1.9,0C1,11.5.2,14.2.2,17v31.9c0,.4.3.7.7.7h39.2c10.2,0,18-10.9,18-17.1V13.6c-.2,0-1.1,0-2.1.2Z"/>
  <path class="st3" d="M8.1,6c.9,0,1.8.1,2.6.4,1.1.4,1.8,1.1,2.2,2.3.3.9.3,2.5.2,4,0,2.4-.2,3.8-.2,4.7,0,.4-.1,1.7-.1,2.4s.2,1.1.7.7c.1-.1.5-.4,1.1-.9,1-.9,2.5-2.4,4-3.9,2.4-2.3,4.8-4.6,5.2-5,.8-.7,1.7-1.5,2.3-1.9.9-.6,2.2-1.3,3.5-.9,1,.3,1.8,1.1,1.6,2.9-.2,1.9-.7,4.6-1.2,7.2-.7,3.3-1.3,6.4-1.5,7.2-.3,1.5-1.4,5.9-1.6,6.9-.2,1-.7,2.3,0,2.6.5.2,1.3-1,1.7-1.5.3-.5,4.3-5.9,8.4-11.3,3.2-4.2,5.2-6.7,5.6-7.2.8-1,2.7-3.3,3.9-4.6,1.1-1.3,1.8-2.1,2.9-2.8.9-.6,2.5-1.3,4.4-1,2,.3,3.2,1.1,3.9,2.5.4.7.5,1.3.6,1.8V1c0-.4-.3-.7-.7-.7H16.7C12.1.3,6.7,3.3,3.3,7.9c.3-.4.7-.7,1.2-1,.7-.4,2.2-1,3.5-.9Z"/>
  <path class="st2" d="M58.1,10.5v3.1s0,0,0,0v-2.1s0-.4,0-1Z"/>
  <path class="st2" d="M2.3,9.2s0,0,.1,0c.3-.4.5-.8.8-1.3-.6.7-.9,1.3-.9,1.3Z"/>
</svg>