<?xml version="1.0" encoding="UTF-8"?>
<svg id="Layer_1" xmlns="http://www.w3.org/2000/svg" xmlns:xlink="http://www.w3.org/1999/xlink" version="1.1" viewBox="0 0 32 32">
  <!-- Generator: Adobe Illustrator 29.1.0, SVG Export Plug-In . SVG Version: 2.1.0 Build 142)  -->
  <defs>
    <style>
      .st0 {
        fill: url(#linear-gradient2);
      }

      .st1 {
        fill: url(#linear-gradient1);
      }

      .st2 {
        fill: url(#linear-gradient);
      }
    </style>
    <linearGradient id="linear-gradient" x1="24.2" y1="17" x2="24.2" y2="7.1" gradientUnits="userSpaceOnUse">
      <stop offset=".1" stop-color="#27aae1"/>
      <stop offset=".3" stop-color="#249ee4"/>
      <stop offset=".6" stop-color="#1e80ee"/>
      <stop offset="1" stop-color="#1554fe"/>
    </linearGradient>
    <linearGradient id="linear-gradient1" x1="7.6" y1="16.9" x2="7.6" y2="7" xlink:href="#linear-gradient"/>
    <linearGradient id="linear-gradient2" x1="5.7" y1="-165.4" x2="5.7" y2="-175.3" gradientTransform="translate(21.6 -149.7) rotate(-180)" gradientUnits="userSpaceOnUse">
      <stop offset=".1" stop-color="#2fbbe1"/>
      <stop offset="1" stop-color="#3f7cff"/>
    </linearGradient>
  </defs>
  <path class="st2" d="M26.8,9.6c-.6-1.5-1.3-2.4-2.2-2.4-.9,0-1.4.4-2.1,1.5-1.2,2.2-1.6,4.6-2.3,7,0,.2-.1.4-.2.6h8.3c-.3-2.3-.7-4.4-1.6-6.7Z"/>
  <path class="st1" d="M11.6,15.6c-.6-2.4-1-4.8-2.3-7-.7-1.1-1.2-1.6-2.1-1.5-.9,0-1.6,1-2.2,2.4-.8,2.3-1.3,4.4-1.6,6.7h1.6s6.7,0,6.7,0c0-.2-.1-.5-.2-.7Z"/>
  <path class="st0" d="M13.3,23c.6,1.5,1.3,2.4,2.2,2.5.9,0,1.4-.4,2.1-1.5,1.2-2.2,1.6-4.6,2.3-7,0-.2.1-.4.2-.6h-8.3c0,0,0,0,.2.5s.6,4.1,1.4,6.2Z"/>
</svg>